# xmcd
#
# Track frame offsets:
#	150
#	12045
#	28388
#	43238
#	61863
#	81011
#	95963
#	112638
#	133113
#	147686
#	162601
#	178028
#
# Disc length: 2616 seconds
#
# Revision: 1
# Processed by: cddbd v1.5.2PL0 Copyright (c) Steve Scherf et al.
# Submitted via: audiograbber 1.83.01
#
DISCID=aa0a360c
DTITLE=Blue Mountain - Midnight In Mississippi
DYEAR=2008
DGENRE=No Depression
TTITLE0=Groove Me
TTITLE1=By Your Side
TTITLE2=70's Song
TTITLE3=She's A Wild One
TTITLE4=Midnight In Mississippi
TTITLE5=Emily Smiles
TTITLE6=Butterfly
TTITLE7=Pretty Please
TTITLE8=Gentle Soul
TTITLE9=Rainy Day
TTITLE10=Free State Of Jones
TTITLE11=Skinny Dipping
EXTD=
EXTT0=
EXTT1=
EXTT2=
EXTT3=
EXTT4=
EXTT5=
EXTT6=
EXTT7=
EXTT8=
EXTT9=
EXTT10=
EXTT11=
PLAYORDER=
